<svg xmlns="http://www.w3.org/2000/svg" viewBox="0 0 800 600">
  <defs><linearGradient id="bg" x1="0" y1="0" x2="1" y2="1"><stop stop-color="#E3F2FF"/><stop offset="1" stop-color="#E7E5FF"/></linearGradient><linearGradient id="bag" x1="0" y1="0" x2="1" y2="1"><stop stop-color="#3A4B62"/><stop offset="1" stop-color="#172337"/></linearGradient><filter id="s"><feDropShadow dx="0" dy="21" stdDeviation="18" flood-color="#25344C" flood-opacity=".22"/></filter></defs>
  <rect width="800" height="600" fill="url(#bg)"/><path d="M0 477c150-70 295-40 429 15 119 50 240 39 371-34v142H0z" fill="#fff" opacity=".28"/>
  <g filter="url(#s)"><path d="M300 89c-55 0-90 42-90 103v314c0 40 23 65 59 65h262c36 0 59-25 59-65V192c0-61-35-103-90-103H300Z" fill="url(#bag)"/><path d="M325 90c0-47 150-47 150 0" fill="none" stroke="#263145" stroke-width="24" stroke-linecap="round"/><path d="M269 215c69-35 193-35 262 0" stroke="#5E46F0" stroke-width="19"/><rect x="334" y="285" width="132" height="166" rx="23" fill="#2E3B51"/><rect x="351" y="307" width="98" height="18" rx="9" fill="#78EEB5"/><circle cx="376" cy="367" r="14" fill="#D6DDEA"/><circle cx="424" cy="367" r="14" fill="#D6DDEA"/><circle cx="376" cy="413" r="14" fill="#D6DDEA"/><circle cx="424" cy="413" r="14" fill="#D6DDEA"/></g>
  <path d="M90 188c35-47 83-61 129-34M654 413c35-21 74-18 108 10" stroke="#fff" stroke-width="12" stroke-linecap="round" opacity=".52" fill="none"/>
</svg>
