<svg xmlns="http://www.w3.org/2000/svg" viewBox="0 0 800 600">
  <defs><linearGradient id="bg" x1="0" y1="0" x2="1" y2="1"><stop stop-color="#E9E7FF"/><stop offset="1" stop-color="#E1F4FF"/></linearGradient><linearGradient id="body" x1="0" y1="0" x2="1" y2="1"><stop stop-color="#30394B"/><stop offset="1" stop-color="#151B28"/></linearGradient><filter id="s"><feDropShadow dx="0" dy="21" stdDeviation="18" flood-color="#2B3655" flood-opacity=".22"/></filter></defs>
  <rect width="800" height="600" fill="url(#bg)"/><circle cx="123" cy="117" r="102" fill="#fff" opacity=".36"/>
  <g filter="url(#s)"><rect x="215" y="64" width="370" height="472" rx="40" fill="url(#body)"/><rect x="243" y="95" width="314" height="122" rx="18" fill="#1A2230"/><rect x="260" y="111" width="280" height="88" rx="11" fill="#D8FFEA"/><path d="M297 141h166M297 166h112" stroke="#4A846B" stroke-width="7" stroke-linecap="round" opacity=".55"/><g fill="#636D7F"><rect x="258" y="272" width="70" height="48" rx="12"/><rect x="365" y="272" width="70" height="48" rx="12"/><rect x="472" y="272" width="70" height="48" rx="12"/><rect x="258" y="343" width="70" height="48" rx="12"/><rect x="365" y="343" width="70" height="48" rx="12"/><rect x="472" y="343" width="70" height="48" rx="12"/><rect x="258" y="414" width="70" height="48" rx="12"/><rect x="365" y="414" width="70" height="48" rx="12"/></g><rect x="472" y="414" width="70" height="48" rx="12" fill="#5E46F0"/><path d="M497 438h20" stroke="#fff" stroke-width="7" stroke-linecap="round"/></g>
</svg>
