<svg xmlns="http://www.w3.org/2000/svg" viewBox="0 0 800 600">
  <defs><linearGradient id="bg" x1="0" y1="0" x2="1" y2="1"><stop stop-color="#D8FFF1"/><stop offset="1" stop-color="#C7E2FF"/></linearGradient><linearGradient id="body" x1="0" y1="0" x2="1" y2="1"><stop stop-color="#F9FFFD"/><stop offset="1" stop-color="#D3F8E8"/></linearGradient><filter id="s"><feDropShadow dx="0" dy="20" stdDeviation="18" flood-color="#197C65" flood-opacity=".18"/></filter></defs>
  <rect width="800" height="600" fill="url(#bg)"/><circle cx="130" cy="100" r="98" fill="#fff" opacity=".38"/><path d="M0 482c130-61 274-50 382 12 125 72 277 68 418-4v110H0z" fill="#fff" opacity=".28"/>
  <g filter="url(#s)"><rect x="216" y="82" width="368" height="413" rx="34" fill="url(#body)"/><rect x="239" y="107" width="322" height="363" rx="23" fill="#ECFDF7"/><path d="M216 186h368" stroke="#B9E8D7" stroke-width="8"/><path d="M589 242h32v48h-32" fill="#CCEDE2"/><rect x="606" y="254" width="10" height="24" rx="5" fill="#6F8C83"/><rect x="358" y="495" width="84" height="26" rx="12" fill="#8AB9AA"/><path d="M337 521h126" stroke="#5E9E8A" stroke-width="14" stroke-linecap="round"/></g>
  <rect x="356" y="141" width="88" height="12" rx="6" fill="#C8F7E8"/><path d="M371 69c5-17 20-23 33-15" stroke="#fff" stroke-width="8" stroke-linecap="round" opacity=".8"/>
</svg>
